<svg width="82" height="79" viewBox="0 0 82 79" fill="none" xmlns="http://www.w3.org/2000/svg">
<path d="M41.8924 42.8298C36.4249 39.8035 36.7994 31.4002 44.4639 30.85C49.2073 30.4998 54.575 33.326 58.4447 35.3768C61.7152 37.1025 70.8776 43.0298 72.1758 46.7813C72.5503 47.8568 73.9734 48.6321 74.6225 49.5074C76.0206 51.4332 76.5449 52.6337 76.7196 53.0839C76.9193 53.5341 77.2689 53.8592 77.169 54.4594C77.144 54.5595 77.7432 55.2597 77.918 55.3348C78.3674 55.5599 78.3174 56.0351 78.617 56.3852C79.0664 56.9854 79.0414 57.0104 79.1413 57.3106C79.1912 57.4856 79.1413 57.5106 79.5158 58.2109C79.6406 58.461 79.9152 59.1363 80.065 59.4114C80.3896 59.9866 80.814 61.0121 80.4895 60.987C80.2398 60.987 80.115 60.812 80.115 60.3368C80.115 60.3368 79.9652 60.2868 79.7155 59.9366C79.4659 59.5615 79.3161 59.0863 79.0165 58.8862C78.2925 58.386 78.4922 57.8858 78.4173 57.6357C78.3424 57.3856 77.868 57.3356 77.7682 57.1605C77.5435 56.6353 77.4436 56.6603 77.169 56.4352C76.5948 56.01 76.1454 55.6849 75.7709 55.2347C75.2217 54.6345 74.972 54.2343 74.6475 54.1343C73.2244 53.6341 73.2244 53.2089 72.9498 53.0088C72.6003 52.7337 72.4505 52.9338 72.6252 53.334C72.9748 54.1093 73.3492 54.0843 73.9235 54.9846C75.0719 56.7854 74.7723 56.01 75.0968 56.5103C75.3215 56.8604 75.1468 56.9604 75.4464 57.2856C75.5213 57.3606 75.7959 57.4106 75.8458 57.6857C75.8958 57.8858 76.2702 58.5611 76.42 58.6611C76.8195 58.9112 76.8694 58.9862 76.9443 59.4364C77.1191 60.2617 77.3687 59.9366 77.7183 60.6119C77.7432 60.6619 78.0178 61.1871 78.0678 61.2121C78.2425 61.3872 79.0165 62.2125 78.9665 62.7127C78.9665 62.9378 79.4409 63.5881 79.6157 64.2133C79.6906 64.5135 79.8653 64.8136 79.9402 65.1637C80.115 65.914 79.6406 65.5389 79.5907 65.4638C79.2162 64.9386 79.1413 64.3634 78.5421 63.5631C77.7931 62.6377 77.918 62.7127 77.169 61.8374C76.2203 60.787 75.9956 60.6119 74.9221 59.4614C73.9484 58.436 73.4741 57.5357 72.5254 56.9854C72.3506 56.8854 72.3506 57.5106 73.1994 58.361C73.3992 58.5611 73.7737 58.8112 73.8486 59.1363C73.9484 59.7866 74.1232 59.8616 74.273 60.3368C74.3728 60.6869 74.8722 60.887 74.972 61.2371C75.0719 61.5373 75.1967 62.0124 75.6461 62.2375C76.1454 62.4626 75.9457 62.2626 76.1454 62.8128C76.2453 63.1379 76.9443 64.5135 77.0941 64.6635C77.2938 64.8636 77.3188 64.9886 77.3937 65.5889C77.4187 65.7389 77.8431 66.0891 77.918 66.3142C78.0428 66.7143 78.2425 67.3396 78.4423 67.6897C78.5921 67.9899 78.7918 68.0399 78.8417 68.315C78.9416 68.8652 79.5657 69.9907 79.7904 70.2157C79.9901 70.3908 79.9402 70.766 79.9901 71.0661C80.0401 71.3162 80.0151 71.8664 80.065 71.9915C80.1649 72.3166 80.065 72.3416 80.2148 72.7418C80.5394 73.6671 80.7641 73.7422 80.9388 74.1923C81.0886 74.5425 80.9388 74.6425 81.0387 74.7676C81.1386 74.8426 80.7391 75.1677 81.2884 75.793C81.8376 76.3682 81.8126 76.6433 81.9375 77.0435C82.0124 77.2686 82.0373 77.5687 81.9125 77.8438C81.6878 78.369 82.1871 78.6941 81.2634 78.369C81.1136 78.319 81.0886 77.6187 81.0137 77.4186C80.4146 75.5929 79.4159 73.1419 78.5172 71.1911C77.8431 69.7155 77.2938 68.0149 76.3202 66.5893C76.0955 66.2642 75.5213 65.814 75.2716 65.5389C74.7224 64.9136 74.1232 64.0133 73.524 63.263C72.4005 61.8374 71.352 61.7373 70.7029 60.5619C69.8041 58.9862 68.4809 57.7607 67.4074 56.8104C63.9371 53.7842 60.1923 50.858 56.5723 48.9322C51.9037 46.4812 46.1116 45.1557 41.8924 42.8298Z" fill="#00A550"/>
<path d="M35.0024 28.9245C27.6375 31.3004 15.9036 27.5989 9.86184 23.0721C6.09201 20.221 1.57321 15.5691 0.374852 10.8422C-1.02323 5.36501 4.7189 1.8386 8.56362 5.49006C10.6358 7.46585 12.4583 10.8672 14.131 13.2932C18.8246 20.0709 26.9634 25.7982 35.0523 27.5489C35.9511 27.749 36.2507 28.5243 35.0024 28.9245Z" fill="#EC1C24"/>
<path d="M33.5541 22.6475C31.3821 19.6213 29.7343 16.8452 28.7607 13.2938C27.7121 9.59229 26.3889 0.188517 32.7801 3.6399C36.1256 5.44062 36.6498 4.31517 39.0466 2.03926C41.7928 -0.586793 46.3615 -0.0865875 45.5377 5.3656C44.7138 10.7177 41.618 17.3704 38.9966 21.9973C37.0992 25.3236 36.4002 26.6491 33.5541 22.6475Z" fill="#064DA1"/>
<path d="M39.3456 27.7255C41.8421 21.273 46.2111 15.5457 52.4276 11.8442C57.4957 8.84297 63.0381 7.36738 68.5805 8.99303C71.5015 9.86838 72.1506 10.7937 70.9272 13.5198C67.0576 22.1483 59.3431 26.1749 49.5066 27.5005C48.9074 27.5755 48.533 27.3004 49.4317 26.8252C52.3777 25.5247 56.0227 23.1737 58.4194 19.9224C60.142 17.6215 59.5928 16.6211 56.7966 17.2213C49.8062 18.6469 44.6383 23.6739 40.2943 28.2007C39.3955 29.1511 38.8962 28.926 39.3456 27.7255Z" fill="#00A550"/>
<path fill-rule="evenodd" clip-rule="evenodd" d="M33.0547 43.7059H33.4791V46.7321C33.4791 46.9655 33.4874 47.1323 33.5041 47.2323C33.5207 47.349 33.5457 47.4574 33.579 47.5574C33.6622 47.7408 33.7787 47.8826 33.9285 47.9826C34.0616 48.0826 34.2281 48.1327 34.4278 48.1327C34.744 48.1327 34.9854 48.0076 35.1518 47.7575C35.3016 47.5074 35.3765 47.1323 35.3765 46.6321V43.7059H35.8009V46.7321C35.8009 47.349 35.6844 47.8075 35.4514 48.1077C35.235 48.4078 34.9021 48.5578 34.4528 48.5578C33.9701 48.5578 33.6122 48.4161 33.3792 48.1327C33.1629 47.8325 33.0547 47.3657 33.0547 46.7321V43.7059ZM30.5581 43.7059H30.9825V46.9072C30.9825 47.1906 30.9659 47.4074 30.9326 47.5574C30.9159 47.7242 30.8743 47.8659 30.8078 47.9826C30.7079 48.166 30.5747 48.3077 30.4083 48.4078C30.2252 48.5078 30.0255 48.5578 29.8091 48.5578C29.4929 48.5578 29.2349 48.4495 29.0352 48.2327C28.8355 47.9993 28.7356 47.6908 28.7356 47.3073H29.16C29.1767 47.5408 29.2432 47.7325 29.3597 47.8826C29.4929 48.0326 29.651 48.1077 29.8341 48.1077C30.1004 48.1077 30.2835 48.0159 30.3833 47.8325C30.4998 47.6325 30.5581 47.2573 30.5581 46.7071V43.7059ZM24.4415 46.1819H27.1378C27.1045 46.8822 26.8798 47.4574 26.4637 47.9076C26.031 48.3411 25.515 48.5578 24.9158 48.5578C24.3 48.5578 23.784 48.3244 23.368 47.8576C22.9352 47.374 22.7188 46.7738 22.7188 46.0568C22.7188 45.7234 22.7771 45.4066 22.8936 45.1064C23.0101 44.823 23.1766 44.5562 23.3929 44.3061C23.6093 44.0727 23.8506 43.8976 24.1169 43.7809C24.3666 43.6809 24.6495 43.6309 24.9658 43.6309C25.3819 43.6309 25.7563 43.7392 26.0892 43.956C26.4221 44.1727 26.6884 44.4895 26.8881 44.9064H26.3888C26.1724 44.6229 25.9478 44.4145 25.7147 44.2811C25.4817 44.1477 25.2237 44.081 24.9408 44.081C24.4581 44.081 24.042 44.2728 23.6925 44.6563C23.343 45.0564 23.1682 45.5316 23.1682 46.0818C23.1682 46.6654 23.343 47.1489 23.6925 47.5324C24.0254 47.9159 24.4498 48.1077 24.9658 48.1077C25.3486 48.1077 25.6981 47.9743 26.0143 47.7075C26.3306 47.424 26.5303 47.0572 26.6135 46.6071H24.4415V46.1819ZM20.422 47.9076L20.3721 43.7059H20.7965V48.4578H20.2972L17.9254 44.2811L17.9754 48.4578H17.5509V43.7059H18.0502L20.422 47.9076ZM12.5078 48.4828H12.0585L13.7312 43.7309H14.2305L15.9032 48.4828H15.4538L14.9295 46.9822H13.0321L12.5078 48.4828ZM14.7797 46.582L13.9559 44.1811L13.157 46.582H14.7797ZM8.58822 43.7309L9.46202 47.6325L10.5356 43.7309H10.96L9.61182 48.4828H9.2623L8.41346 44.6062L7.53966 48.4828H7.19014L5.84199 43.7309H6.26641L7.33993 47.6325L8.21374 43.7309H8.58822ZM1.69767 46.2069H4.39397C4.36068 46.9072 4.13599 47.4741 3.7199 47.9076C3.3038 48.3577 2.78784 48.5828 2.17202 48.5828C1.5562 48.5828 1.04024 48.3411 0.624144 47.8576C0.208048 47.3907 0 46.7988 0 46.0818C0 45.7484 0.0499292 45.4316 0.149792 45.1315C0.266299 44.8313 0.441061 44.5646 0.674075 44.3311C0.873801 44.0977 1.10682 43.9226 1.37312 43.8059C1.62277 43.7059 1.90572 43.6559 2.22195 43.6559C2.63805 43.6559 3.01253 43.7642 3.34541 43.981C3.67829 44.1978 3.95291 44.5145 4.16928 44.9314H3.645C3.42863 44.6479 3.21226 44.4395 2.99589 44.3061C2.76288 44.1727 2.49658 44.106 2.19699 44.106C1.71432 44.106 1.29822 44.2978 0.9487 44.6813C0.615823 45.0814 0.449385 45.5483 0.449385 46.0818C0.449385 46.6654 0.615823 47.1573 0.9487 47.5574C1.29822 47.9409 1.72264 48.1327 2.22195 48.1327C2.60476 48.1327 2.95428 47.9909 3.27051 47.7075C3.58675 47.4407 3.79479 47.0822 3.89466 46.6321H1.69767V46.2069ZM0.0998615 49.3331H35.8259V50.0834H0.0998615V49.3331ZM30.7329 51.8341H31.9062V57.5614C31.9062 58.3784 32.0144 58.9453 32.2308 59.2621C32.4305 59.5789 32.7967 59.7373 33.3293 59.7373C33.812 59.7373 34.1532 59.5789 34.3529 59.2621C34.5693 58.9287 34.6775 58.3618 34.6775 57.5614V51.8341H35.8259V57.5614C35.8259 58.1617 35.7926 58.6285 35.726 58.962C35.6761 59.2788 35.5762 59.5622 35.4264 59.8123C35.1934 60.2125 34.9021 60.5126 34.5526 60.7127C34.2197 60.9128 33.8203 61.0128 33.3543 61.0128C32.8383 61.0128 32.4056 60.9211 32.056 60.7377C31.7065 60.5376 31.3986 60.2292 31.1323 59.8123C30.9992 59.5789 30.8993 59.3121 30.8327 59.012C30.7661 58.7119 30.7329 58.2284 30.7329 57.5614V51.8341ZM24.816 56.2859H29.7592C29.6926 57.6865 29.2848 58.8286 28.5359 59.7123C27.7869 60.5793 26.8382 61.0128 25.6898 61.0128C25.0906 61.0128 24.5413 60.8794 24.042 60.6127C23.5261 60.3626 23.0684 59.9791 22.6689 59.4622C22.336 59.0454 22.0781 58.5618 21.895 58.0116C21.7285 57.4781 21.6453 56.8945 21.6453 56.2609C21.6453 55.644 21.7452 55.0521 21.9449 54.4852C22.1613 53.9183 22.4775 53.4098 22.8936 52.9596C23.2764 52.5094 23.7092 52.1759 24.1918 51.9592C24.6579 51.7424 25.1821 51.6341 25.7647 51.6341C26.5802 51.6341 27.2876 51.8508 27.8868 52.2843C28.5026 52.7178 28.9603 53.3264 29.2599 54.1101H27.8368C27.5872 53.7266 27.2793 53.4348 26.9131 53.2347C26.5469 53.0513 26.1392 52.9596 25.6898 52.9596C25.307 52.9596 24.9491 53.0346 24.6162 53.1847C24.2834 53.3514 23.9838 53.5849 23.7175 53.885C23.4345 54.2018 23.2182 54.5686 23.0684 54.9854C22.9186 55.4189 22.8437 55.8524 22.8437 56.2859C22.8437 56.7528 22.9103 57.1946 23.0434 57.6115C23.1932 58.0283 23.3929 58.3951 23.6426 58.7119C23.9255 59.0287 24.2418 59.2788 24.5913 59.4622C24.9574 59.6289 25.3236 59.7123 25.6898 59.7123C26.2889 59.7123 26.8216 59.5289 27.2876 59.1621C27.7536 58.7953 28.1364 58.2617 28.436 57.5614H24.816V56.2859ZM20.397 57.9866H17.6758V56.8612H20.397V57.9866ZM13.4815 60.8127H12.3331V51.8091H13.4815V60.8127ZM13.5065 56.336L16.5273 51.8091H17.9005L14.8297 56.2609L17.8256 60.8127H16.3775L13.5065 56.336ZM6.04171 51.7841H7.19014V57.5114C7.19014 58.3284 7.29832 58.8953 7.51469 59.2121C7.73106 59.5456 8.09723 59.7123 8.61319 59.7123C9.1125 59.7123 9.46202 59.5456 9.66175 59.2121C9.86148 58.8953 9.96134 58.3284 9.96134 57.5114V51.7841H11.1098V57.5114C11.1098 58.1283 11.0848 58.5952 11.0349 58.912C10.9683 59.2454 10.8684 59.5289 10.7353 59.7623C10.4856 60.1792 10.1944 60.4876 9.86148 60.6877C9.51196 60.8878 9.10418 60.9878 8.63815 60.9878C8.12219 60.9878 7.68945 60.8878 7.33993 60.6877C6.99041 60.5043 6.69083 60.2042 6.44117 59.7873C6.29137 59.5372 6.18319 59.2621 6.11661 58.962C6.06668 58.6786 6.04171 58.195 6.04171 57.5114V51.7841ZM0.22469 51.7841H2.94596C3.57843 51.7841 4.0611 52.0259 4.39397 52.5094C4.72685 52.9929 4.89329 53.5265 4.89329 54.1101C4.89329 54.6103 4.67692 55.1855 4.24418 55.8358C4.90993 56.486 5.24281 57.2113 5.24281 58.0116C5.24281 59.062 4.98483 59.7873 4.46887 60.1875C3.95291 60.5877 3.49521 60.7877 3.09575 60.7877H0.22469V51.7841ZM1.37312 53.1847V55.2605H2.94596C3.19562 55.2605 3.39534 55.1521 3.54514 54.9354C3.67829 54.7186 3.74486 54.4769 3.74486 54.2101C3.74486 53.96 3.67829 53.7266 3.54514 53.5098C3.39534 53.2931 3.19562 53.1847 2.94596 53.1847H1.37312ZM1.37312 56.6611V59.3872H3.04582C3.29548 59.3872 3.52849 59.2621 3.74486 59.012C3.96123 58.7619 4.06942 58.4285 4.06942 58.0116C4.06942 57.6115 3.96123 57.2863 3.74486 57.0362C3.52849 56.7861 3.29548 56.6611 3.04582 56.6611H1.37312Z" fill="#00A550"/>
</svg>
