<svg width="60" height="60" viewBox="0 0 60 60" fill="none" xmlns="http://www.w3.org/2000/svg">
<g clip-path="url(#clip0_2196_1406)">
<path d="M60 30C60 13.4315 46.5685 0 30 0C13.4315 0 0 13.4315 0 30C0 46.5685 13.4315 60 30 60C46.5685 60 60 46.5685 60 30Z" fill="#D7151D"/>
<path d="M29.7524 21.6909H41.2896C41.6799 21.6909 41.9985 22.0011 41.9985 22.3842V29.4192C41.9985 32.9149 39.097 35.7525 35.5224 35.7525C31.9479 35.7525 29.0464 32.9149 29.0464 29.4192V22.3842C29.0464 22.0025 29.3635 21.6909 29.7553 21.6909H29.7524Z" stroke="white" stroke-width="3.75" stroke-miterlimit="10"/>
<path d="M31.9824 22.2804V17.4079C31.9824 17.0388 32.3153 16.7385 32.7272 16.7385H38.4183C38.8301 16.7385 39.163 17.0374 39.163 17.4079V22.2804" stroke="white" stroke-width="3.75" stroke-miterlimit="10"/>
<path d="M35.5485 36.6606C35.5485 36.6606 35.4509 45.7851 26.8037 45.7851C18.1566 45.7851 19.3017 37.1854 19.3017 37.1854V15.592" stroke="white" stroke-width="3.75" stroke-miterlimit="10"/>
</g>
<defs>
<clipPath id="clip0_2196_1406">
<rect width="60" height="60" fill="white"/>
</clipPath>
</defs>
</svg>
