<svg width="64" height="65" viewBox="0 0 64 65" fill="none" xmlns="http://www.w3.org/2000/svg">
<path fill-rule="evenodd" clip-rule="evenodd" d="M36.768 10.6439C35.552 5.6519 28.448 5.6519 27.232 10.6439C27.0505 11.394 26.6944 12.0907 26.1927 12.6772C25.6911 13.2637 25.058 13.7235 24.3451 14.0192C23.6322 14.3148 22.8595 14.438 22.09 14.3786C21.3205 14.3192 20.5759 14.079 19.9168 13.6775C15.5264 11.0023 10.5024 16.0263 13.1776 20.4167C14.9056 23.2519 13.3728 26.9511 10.1472 27.7351C5.152 28.9479 5.152 36.0551 10.1472 37.2647C10.8975 37.4465 11.5943 37.8029 12.1808 38.3049C12.7674 38.807 13.227 39.4404 13.5224 40.1537C13.8177 40.867 13.9405 41.64 13.8805 42.4097C13.8206 43.1794 13.5798 43.9241 13.1776 44.5831C10.5024 48.9735 15.5264 53.9975 19.9168 51.3223C20.5758 50.9201 21.3205 50.6793 22.0902 50.6194C22.8599 50.5594 23.6329 50.6822 24.3462 50.9775C25.0595 51.2729 25.6929 51.7326 26.195 52.3191C26.697 52.9056 27.0534 53.6024 27.2352 54.3527C28.448 59.3479 35.5552 59.3479 36.7648 54.3527C36.9472 53.6028 37.304 52.9064 37.8061 52.3203C38.3082 51.7342 38.9416 51.2749 39.6547 50.9796C40.3678 50.6843 41.1405 50.5615 41.91 50.621C42.6795 50.6806 43.424 50.9208 44.0832 51.3223C48.4736 53.9975 53.4976 48.9735 50.8224 44.5831C50.4209 43.9239 50.1807 43.1793 50.1211 42.4099C50.0616 41.6404 50.1844 40.8677 50.4797 40.1546C50.775 39.4415 51.2343 38.8081 51.8204 38.306C52.4065 37.8039 53.1029 37.4471 53.8528 37.2647C58.848 36.0519 58.848 28.9447 53.8528 27.7351C53.1025 27.5533 52.4057 27.1969 51.8192 26.6949C51.2327 26.1928 50.773 25.5594 50.4776 24.8461C50.1823 24.1328 50.0596 23.3598 50.1195 22.5901C50.1794 21.8204 50.4202 21.0757 50.8224 20.4167C53.4976 16.0263 48.4736 11.0023 44.0832 13.6775C43.4242 14.0797 42.6795 14.3205 41.9098 14.3804C41.1401 14.4404 40.3671 14.3176 39.6538 14.0223C38.9405 13.7269 38.3071 13.2673 37.805 12.6807C37.303 12.0942 36.9466 11.3974 36.7648 10.6471L36.768 10.6439ZM32 42.0999C34.5461 42.0999 36.9879 41.0885 38.7882 39.2881C40.5886 37.4878 41.6 35.046 41.6 32.4999C41.6 29.9538 40.5886 27.512 38.7882 25.7117C36.9879 23.9113 34.5461 22.8999 32 22.8999C29.4539 22.8999 27.0121 23.9113 25.2118 25.7117C23.4114 27.512 22.4 29.9538 22.4 32.4999C22.4 35.046 23.4114 37.4878 25.2118 39.2881C27.0121 41.0885 29.4539 42.0999 32 42.0999Z" fill="#6B7280"/>
</svg>
