<svg width="48" height="48" viewBox="0 0 48 48" fill="none" xmlns="http://www.w3.org/2000/svg">
<g clip-path="url(#clip0_2131_859)">
<path opacity="0.2" d="M47.9998 24C47.9998 10.7452 37.2546 0 23.9998 0C10.7449 0 -0.000244141 10.7452 -0.000244141 24C-0.000244141 37.2548 10.7449 48 23.9998 48C37.2546 48 47.9998 37.2548 47.9998 24Z" fill="white"/>
<path d="M23.8016 17.3531H33.0314C33.3436 17.3531 33.5985 17.6012 33.5985 17.9077V23.5357C33.5985 26.3323 31.2773 28.6024 28.4177 28.6024C25.558 28.6024 23.2368 26.3323 23.2368 23.5357V17.9077C23.2368 17.6023 23.4905 17.3531 23.8039 17.3531H23.8016Z" stroke="white" stroke-width="2.5" stroke-miterlimit="10"/>
<path d="M25.5856 17.828V13.9301C25.5856 13.6348 25.8519 13.3945 26.1814 13.3945H30.7343C31.0637 13.3945 31.3301 13.6337 31.3301 13.9301V17.828" stroke="white" stroke-width="2.5" stroke-miterlimit="10"/>
<path d="M28.4381 29.3329C28.4381 29.3329 28.36 36.6326 21.4423 36.6326C14.5246 36.6326 15.4407 29.7528 15.4407 29.7528V12.4781" stroke="white" stroke-width="2.5" stroke-miterlimit="10"/>
</g>
<defs>
<clipPath id="clip0_2131_859">
<rect width="48" height="48" fill="white"/>
</clipPath>
</defs>
</svg>
