<svg width="146" height="146" viewBox="0 0 146 146" fill="none" xmlns="http://www.w3.org/2000/svg">
<path d="M84.1715 28.0591C84.1715 30.4149 82.2537 32.2746 79.903 32.2746H66.4169C64.0661 32.2746 62.2102 30.4149 62.2102 28.0591V24.2155C62.2102 21.9218 64.0661 20 66.4169 20H79.903C82.2537 20 84.1715 21.9218 84.1715 24.2155V28.0591Z" fill="black"/>
<rect x="30.4746" y="33.6384" width="85.9891" height="90.5101" rx="10" fill="white"/>
<path fill-rule="evenodd" clip-rule="evenodd" d="M110.772 127.001H36.2277C31.7118 127.001 28 123.281 28 118.756V38.8466C28 34.3211 31.7118 30.6016 36.2277 30.6016H110.772C115.288 30.6016 119 34.3211 119 38.8466V118.756C119 123.281 115.288 127.001 110.772 127.001ZM36.2277 35.561C34.4337 35.561 32.949 37.0488 32.949 38.8466V118.756C32.949 120.554 34.4337 122.042 36.2277 122.042H110.772C112.566 122.042 114.051 120.554 114.051 118.756V38.8466C114.051 37.0488 112.566 35.561 110.772 35.561H36.2277Z" fill="black"/>
<path d="M90.9146 36.2418C90.9146 38.5355 88.9968 40.4573 86.7079 40.4573H59.1171C56.7664 40.4573 54.8486 38.5355 54.8486 36.2418V32.5842C54.8486 30.2284 56.7664 28.3066 59.1171 28.3066H86.7079C88.9968 28.3066 90.9146 30.2284 90.9146 32.5842V36.2418Z" fill="black"/>
<path d="M38 95C42.545 94.7102 52.6914 91.6773 56.9163 81.8636C62.1975 69.5966 67.1907 61 73.3361 61C78.2524 61 85.6269 74.9091 88.6996 81.8636C91.3562 85.9848 98.9355 94.3818 108 95" stroke="#F46363" stroke-width="3" stroke-linecap="round"/>
<path d="M39 99H107" stroke="black" stroke-width="2" stroke-linecap="round"/>
<path d="M61 79V99" stroke="black" stroke-width="2" stroke-linecap="round" stroke-linejoin="round" stroke-dasharray="1 3.4"/>
<path d="M85 79V99" stroke="black" stroke-width="2" stroke-linecap="round" stroke-linejoin="round" stroke-dasharray="1 3.4"/>
</svg>
