<svg width="146" height="146" viewBox="0 0 146 146" fill="none" xmlns="http://www.w3.org/2000/svg">
<g clip-path="url(#clip0_2131_868)">
<path d="M84.9048 96.333L84.9048 106.354C84.9048 108.594 83.0888 110.41 80.8487 110.41C78.6085 110.41 76.7926 108.594 76.7926 106.354L76.7926 96.333C76.7926 94.0928 78.6085 92.2768 80.8487 92.2768C83.0888 92.2768 84.9048 94.0928 84.9048 96.333Z" fill="#5E82F3"/>
<g opacity="0.2" filter="url(#filter0_f_2131_868)">
<path d="M31.7554 92.3945C31.7554 71.96 34.8894 55.3945 38.7554 55.3945C42.6214 55.3945 45.7554 71.96 45.7554 92.3945C45.7554 112.829 42.6214 129.395 38.7554 129.395C34.8894 129.395 31.7554 112.829 31.7554 92.3945Z" fill="black"/>
</g>
<path d="M85.0566 17.2582L85.0566 64.6719L106.597 64.6719L106.597 17.2582L85.0566 17.2582Z" fill="#F0F0F0"/>
<path d="M83.3833 68.6727L83.3833 21.259C83.3833 20.3371 84.136 19.5844 85.0579 19.5844L106.598 19.5844C107.52 19.5844 108.273 20.3371 108.273 21.259L108.273 68.6727C108.273 69.5947 107.52 70.3473 106.598 70.3473L85.0579 70.3473C84.136 70.3473 83.3833 69.5947 83.3833 68.6727ZM104.923 22.9336L86.7324 22.9336L86.7324 66.9982L104.923 66.9982L104.923 22.9336Z" fill="black" stroke="black" stroke-width="0.8"/>
<path d="M40 69.4035L40 123.596C40 128.523 44.2679 132.5 49.555 132.5L103.445 132.5C108.732 132.5 113 128.523 113 123.596L113 69.4035C113 64.4769 108.732 60.5 103.445 60.5L49.555 60.5C44.2679 60.5 40 64.4769 40 69.4035Z" fill="#36A37B"/>
<path d="M38.6 123.46L38.6 69.5399C38.6 63.7422 43.6114 59.1 49.7504 59.1L103.25 59.1C109.389 59.1 114.4 63.7422 114.4 69.5399L114.4 123.46C114.4 129.258 109.389 133.9 103.25 133.9L49.7504 133.9C43.6114 133.9 38.6 129.258 38.6 123.46ZM103.25 130.738C107.608 130.738 111.07 127.466 111.07 123.46L111.07 69.5399C111.07 65.534 107.608 62.2623 103.25 62.2623L49.7504 62.2623C45.392 62.2623 41.9295 65.5339 41.9295 69.5399L41.9295 123.46C41.9295 127.466 45.392 130.738 49.7504 130.738L103.25 130.738Z" fill="black" stroke="black" stroke-width="0.8"/>
<path d="M76.4548 72.8351C63.3268 72.8351 52.7479 83.4777 52.7479 96.5419C52.7479 109.67 63.3268 120.312 76.4548 120.312C89.519 120.312 100.162 109.67 100.162 96.5419C100.162 83.4777 89.519 72.8351 76.4548 72.8351Z" fill="#9CFFC4"/>
<path d="M81.5521 19.5197L81.5521 30.3535L109.911 30.3535L109.911 19.5197L81.5521 19.5197Z" fill="#D1D1D1"/>
<path d="M79.8769 29.3524L79.8769 18.5186C79.8769 17.5967 80.6296 16.8441 81.5515 16.8441L109.91 16.8441C110.832 16.8441 111.585 17.5967 111.585 18.5186L111.585 29.3524C111.585 30.2743 110.832 31.027 109.91 31.027L81.5515 31.027C80.6296 31.027 79.8769 30.2743 79.8769 29.3524ZM108.236 20.1932L83.2261 20.1932L83.2261 27.6778L108.236 27.6778L108.236 20.1932Z" fill="black" stroke="black" stroke-width="0.8"/>
<path d="M98.758 54.2887C97.8361 54.2887 97.0835 53.536 97.0835 52.6141C97.0835 51.6922 97.8361 50.9395 98.758 50.9395L106.087 50.9395C107.009 50.9395 107.761 51.6922 107.761 52.6141C107.761 53.536 107.009 54.2887 106.087 54.2887L98.758 54.2887Z" fill="black" stroke="black" stroke-width="0.8"/>
<path d="M98.758 46.6402C97.8361 46.6402 97.0835 45.8876 97.0835 44.9657C97.0835 44.0437 97.8361 43.2911 98.758 43.2911L106.087 43.2911C107.009 43.2911 107.761 44.0437 107.761 44.9657C107.761 45.8876 107.009 46.6402 106.087 46.6402L98.758 46.6402Z" fill="black" stroke="black" stroke-width="0.8"/>
<path d="M98.758 38.9937C97.8361 38.9937 97.0835 38.2411 97.0835 37.3192C97.0835 36.3973 97.8361 35.6446 98.758 35.6446L106.087 35.6446C107.009 35.6446 107.761 36.3973 107.761 37.3192C107.761 38.2411 107.009 38.9937 106.087 38.9937L98.758 38.9937Z" fill="black" stroke="black" stroke-width="0.8"/>
<path d="M75.9815 121.927C61.9946 121.927 50.6001 110.531 50.6001 96.4822C50.6001 82.496 61.9953 71.1008 75.9815 71.1008C89.9677 71.1008 101.363 82.496 101.363 96.4822C101.363 110.531 89.9683 121.927 75.9815 121.927ZM75.9815 118.578C88.1231 118.578 98.0138 108.689 98.0138 96.4822C98.0138 84.3399 88.1238 74.4499 75.9815 74.4499C63.8392 74.4499 53.9492 84.3399 53.9492 96.4822C53.9492 108.689 63.8399 118.578 75.9815 118.578Z" fill="black" stroke="black" stroke-width="0.8"/>
</g>
<defs>
<filter id="filter0_f_2131_868" x="12.3268" y="35.966" width="52.8571" height="112.857" filterUnits="userSpaceOnUse" color-interpolation-filters="sRGB">
<feFlood flood-opacity="0" result="BackgroundImageFix"/>
<feBlend mode="normal" in="SourceGraphic" in2="BackgroundImageFix" result="shape"/>
<feGaussianBlur stdDeviation="9.71426" result="effect1_foregroundBlur_2131_868"/>
</filter>
<clipPath id="clip0_2131_868">
<rect width="146" height="146" fill="white" transform="matrix(-1 0 0 1 146 0)"/>
</clipPath>
</defs>
</svg>
