<svg width="146" height="146" viewBox="0 0 146 146" fill="none" xmlns="http://www.w3.org/2000/svg">
<path d="M84.1713 28.0591C84.1713 30.4149 82.2536 32.2746 79.9028 32.2746H66.4167C64.066 32.2746 62.2101 30.4149 62.2101 28.0591V24.2155C62.2101 21.9218 64.066 20 66.4167 20H79.9028C82.2536 20 84.1713 21.9218 84.1713 24.2155V28.0591Z" fill="black"/>
<rect x="30.4745" y="33.6385" width="85.9891" height="90.5101" rx="10" fill="white"/>
<path fill-rule="evenodd" clip-rule="evenodd" d="M110.772 127.001H36.2277C31.7118 127.001 28 123.281 28 118.756V38.8466C28 34.3211 31.7118 30.6016 36.2277 30.6016H110.772C115.288 30.6016 119 34.3211 119 38.8466V118.756C119 123.281 115.288 127.001 110.772 127.001ZM36.2277 35.561C34.4337 35.561 32.949 37.0488 32.949 38.8466V118.756C32.949 120.554 34.4337 122.042 36.2277 122.042H110.772C112.566 122.042 114.051 120.554 114.051 118.756V38.8466C114.051 37.0488 112.566 35.561 110.772 35.561H36.2277Z" fill="black"/>
<path d="M90.9146 36.2418C90.9146 38.5355 88.9968 40.4573 86.7079 40.4573H59.1171C56.7664 40.4573 54.8486 38.5355 54.8486 36.2418V32.5842C54.8486 30.2284 56.7664 28.3066 59.1171 28.3066H86.7079C88.9968 28.3066 90.9146 30.2284 90.9146 32.5842V36.2418Z" fill="black"/>
<path d="M80.7071 93.6462C80.0266 93.5842 79.4699 93.1503 79.2843 92.5303L72.8505 68.415L66.4787 89.2447C66.2931 89.8026 65.7363 90.2366 65.1177 90.2986C64.4991 90.2986 63.9423 89.9266 63.6949 89.3687L59.5501 79.4497L57.6942 83.2314C57.4467 83.7273 56.9518 84.0373 56.3951 84.0373H40.0633C39.2591 84.0373 38.5786 83.4173 38.5786 82.5494C38.5786 81.7435 39.2591 81.1236 40.0633 81.1236H55.4671L58.3747 75.2962C58.6221 74.7383 59.117 74.4283 59.7356 74.4283C60.2924 74.4903 60.8492 74.8003 61.0348 75.3582L64.8702 84.4712L71.5514 62.6496C71.737 61.9677 72.2938 61.5337 72.9743 61.5957C73.6548 61.5957 74.2115 62.0297 74.3971 62.6496L80.769 86.7649L85.0375 72.5685C85.2231 72.0106 85.7799 71.5766 86.3985 71.5146C87.0171 71.5146 87.6357 71.8866 87.8213 72.4445L90.7907 79.8217H104.71C105.514 79.8217 106.195 80.5036 106.195 81.3095C106.195 82.1155 105.514 82.7974 104.71 82.7974H89.8009C89.1823 82.7974 88.6255 82.4254 88.4399 81.8675L86.6459 77.466L82.1299 92.5923C81.9444 93.2122 81.3257 93.6462 80.7071 93.6462Z" fill="#FC6B6B"/>
<path fill-rule="evenodd" clip-rule="evenodd" d="M80.7071 94.2669C79.7173 94.2049 78.9131 93.585 78.6656 92.7171L72.7887 70.6475L67.0973 89.4314C66.788 90.2374 66.0456 90.8573 65.1795 90.9193C64.1897 90.9193 63.4474 90.4233 63.1381 89.6174L59.4882 80.9384L58.2509 83.5421C57.8798 84.224 57.1374 84.658 56.3951 84.658H40.0633C38.8879 84.658 37.96 83.7281 37.96 82.5502C37.96 81.4343 38.8879 80.5044 40.0633 80.5044H55.0959L57.8179 74.987C58.1891 74.3051 58.8696 73.8092 59.6738 73.8092C60.5398 73.8712 61.2822 74.3671 61.5915 75.111L64.7465 82.6122L70.9328 62.4644C71.1802 61.5345 71.9844 60.9766 72.9124 60.9766C73.9022 60.9766 74.7064 61.5965 74.9539 62.5264L80.8308 84.472L84.4807 72.4453C84.7281 71.5774 85.5324 70.9575 86.3985 70.9575C87.3264 70.9575 88.1306 71.4534 88.4399 72.2593L91.2237 79.2026H104.71C105.885 79.2026 106.813 80.1944 106.813 81.3103C106.813 82.4882 105.885 83.4181 104.71 83.4181H89.8009C88.9348 83.4181 88.1925 82.9221 87.8213 82.1162L86.7696 79.3885L82.6867 92.7791C82.4392 93.647 81.635 94.2669 80.7071 94.2669ZM72.8505 67.7958C73.1598 67.7958 73.3454 67.9818 73.4691 68.2298L79.9029 92.3451C79.9647 92.7171 80.3359 93.027 80.7071 93.027C81.0783 93.027 81.3876 92.7791 81.5113 92.4071L86.0891 77.2808C86.151 77.0328 86.3984 76.9088 86.6459 76.8468C86.8933 76.8468 87.1408 77.0328 87.2645 77.2808L88.9967 81.6203C89.1204 81.9922 89.4297 82.1782 89.8009 82.1782H104.71C105.205 82.1782 105.576 81.8063 105.576 81.3103C105.576 80.8764 105.205 80.4424 104.71 80.4424H90.7907C90.5432 80.4424 90.2958 80.3184 90.2339 80.0705L87.2645 72.6933C87.1408 72.3833 86.8315 72.1353 86.4603 72.1353C86.0891 72.1973 85.7798 72.4453 85.6561 72.7553L81.3876 86.9517C81.3257 87.1997 81.0782 87.3856 80.7689 87.3856C80.5215 87.3856 80.2741 87.1997 80.2122 86.8897L73.7785 62.8364C73.6547 62.4644 73.3454 62.2164 72.9742 62.2164C72.5412 62.2164 72.2319 62.4644 72.1082 62.7744L65.427 84.658C65.3651 84.9059 65.1177 85.0919 64.8702 85.0919C64.6228 85.0919 64.3753 84.9679 64.2516 84.7199L60.478 75.6069C60.3542 75.297 60.0449 75.111 59.7356 75.049C59.3644 75.049 59.0551 75.235 58.9314 75.545L56.0239 81.3723C55.9001 81.5583 55.7146 81.7443 55.4671 81.7443H40.0633C39.5684 81.7443 39.1972 82.1162 39.1972 82.5502C39.1972 83.0461 39.5684 83.4181 40.0633 83.4181H56.3951C56.7044 83.4181 57.0137 83.2321 57.1374 82.9841L58.9933 79.2026C59.117 78.9546 59.3644 78.8306 59.6119 78.8306C59.7975 78.8306 60.045 79.0166 60.1068 79.2026L64.2516 89.1215C64.4372 89.4314 64.7465 89.6794 65.0558 89.6794C65.4889 89.6174 65.7982 89.3694 65.86 89.0595L72.2319 68.2298C72.3556 67.9818 72.6031 67.7958 72.8505 67.7958Z" fill="#FC6B6B"/>
</svg>
